<?xml version="1.0" encoding="iso-8859-1"?>
<!-- Generator: Adobe Illustrator 18.0.0, SVG Export Plug-In . SVG Version: 6.00 Build 0)  -->
<!DOCTYPE svg PUBLIC "-//W3C//DTD SVG 1.1//EN" "http://www.w3.org/Graphics/SVG/1.1/DTD/svg11.dtd">
<svg version="1.1" id="Capa_1" xmlns="http://www.w3.org/2000/svg" xmlns:xlink="http://www.w3.org/1999/xlink" x="0px" y="0px"
	 viewBox="0 0 493.944 493.944" style="enable-background:new 0 0 493.944 493.944;" xml:space="preserve">
<path id="XMLID_530_" d="M367.468,175.996c-3.368-5.469-9.317-8.807-15.734-8.807h-84.958l45.919-143.098
	c1.797-5.614,0.816-11.76-2.662-16.521c-3.464-4.748-9.014-7.57-14.9-7.57h-84.446c-8.02,0-15.125,5.18-17.563,12.814
	l-68.487,213.465c-1.797,5.613-0.817,11.756,2.663,16.52c3.464,4.748,9.013,7.57,14.899,7.57h14.868h68.183l-22.006,235.037
	c-0.352,3.736,2.004,7.185,5.614,8.227c3.593,1.045,7.427-0.608,9.126-3.961L368.19,194.01
	C371.093,188.281,370.82,181.467,367.468,175.996z"/>
<g>
</g>
<g>
</g>
<g>
</g>
<g>
</g>
<g>
</g>
<g>
</g>
<g>
</g>
<g>
</g>
<g>
</g>
<g>
</g>
<g>
</g>
<g>
</g>
<g>
</g>
<g>
</g>
<g>
</g>
</svg>
