<?xml version="1.0" encoding="iso-8859-1"?>
<!-- Generator: Adobe Illustrator 19.0.0, SVG Export Plug-In . SVG Version: 6.00 Build 0)  -->
<svg version="1.1" id="Capa_1" xmlns="http://www.w3.org/2000/svg" xmlns:xlink="http://www.w3.org/1999/xlink" x="0px" y="0px"
	 viewBox="0 0 496.8 496.8" style="enable-background:new 0 0 496.8 496.8;" xml:space="preserve">
<g>
	<g>
		<g>
			<polygon points="0,434.669 44.2,493.369 452.6,493.369 496.8,434.669 			"/>
			<path d="M416.7,414.169c14.6-71-5.5-141.1-48.9-186.5c28.3-52.1,17.1-106.6-16.2-121c-33-15.4-83.5,16.5-100.5,69.4
				c-82.7-1.2-203,72.3-199.4,238.1H416.7z"/>
			<path d="M356.8,54.969c1.6,0.8,3.2,1.6,4.7,2.4l-15.8,26c13-0.5,31.5,10.4,38.2,22.5l15.4-26c1.2,1.2,2.8,2.4,4.3,3.2
				c13,7.9,30,3.5,37.8-9.5c7.9-13,3.5-30-9.5-37.8c-13-7.9-22.4-3.1-32.3,1.6l0,0c2.6-10.7-1.6-22.1-14.6-30s-30-3.5-37.8,9.5
				C339.9,30.169,343.8,47.169,356.8,54.969z"/>
		</g>
	</g>
</g>
<g>
</g>
<g>
</g>
<g>
</g>
<g>
</g>
<g>
</g>
<g>
</g>
<g>
</g>
<g>
</g>
<g>
</g>
<g>
</g>
<g>
</g>
<g>
</g>
<g>
</g>
<g>
</g>
<g>
</g>
</svg>
